<svg xmlns="http://www.w3.org/2000/svg" width="760" height="420">
<rect width="100%" height="100%" fill="white"/>
<line x1="55" y1="365" x2="705" y2="365" stroke="black"/>
<line x1="55" y1="55" x2="55" y2="365" stroke="black"/>
<polyline fill="none" stroke="#777" stroke-width="3" points="61.5,357.8 68.0,362.6 74.5,358.8 81.0,333.6 87.5,223.5 94.0,120.1 100.5,108.6 107.0,102.9 113.5,97.2 120.0,93.3 126.5,90.8 133.0,89.0 139.5,87.3 146.0,86.0 152.5,85.0"/>
<polyline fill="none" stroke="#0068b5" stroke-width="3" points="61.5,250.4 68.0,174.2 74.5,154.6 81.0,141.2 87.5,125.6 94.0,108.4 100.5,96.0 107.0,90.8 113.5,87.1 120.0,84.1 126.5,81.9 133.0,80.4 139.5,79.5 146.0,78.8 152.5,78.3 159.0,77.9 165.5,77.6 172.0,77.2 178.5,76.7 185.0,76.3 191.5,76.0 198.0,75.6 204.5,75.3 211.0,75.0 217.5,74.6 224.0,74.4 230.5,74.1 237.0,73.8 243.5,73.6 250.0,73.3 256.5,73.2 263.0,73.0 269.5,72.8 276.0,72.7 282.5,72.6 289.0,72.5 295.5,72.4 302.0,72.3 308.5,72.1 315.0,72.0 321.5,71.9 328.0,71.8 334.5,71.7 341.0,71.7 347.5,71.6 354.0,71.5 360.5,71.5 367.0,71.4 373.5,71.3 380.0,71.3 386.5,71.2 393.0,71.2 399.5,71.1 406.0,71.1 412.5,71.0 419.0,71.0 425.5,70.9 432.0,70.9 438.5,70.8 445.0,70.8 451.5,70.7 458.0,70.7 464.5,70.7 471.0,70.6 477.5,70.6 484.0,70.5 490.5,70.5 497.0,70.5 503.5,70.4 510.0,70.4 516.5,70.3 523.0,70.3 529.5,70.3 536.0,70.2 542.5,70.2 549.0,70.2 555.5,70.1 562.0,70.1 568.5,70.1 575.0,70.0 581.5,70.0 588.0,70.0 594.5,69.9 601.0,69.9 607.5,69.9 614.0,69.9 620.5,69.8 627.0,69.8 633.5,69.8 640.0,69.7 646.5,69.7 653.0,69.7 659.5,69.6 666.0,69.6 672.5,69.6 679.0,69.5 685.5,69.5 692.0,69.5 698.5,69.5 705.0,69.4"/>
<text x="350.0" y="408" font-family="sans-serif">Epoch</text>
<text x="8" y="210.0" font-family="sans-serif" transform="rotate(-90 15 210.0)">Training Dice</text>
<text x="515" y="30" fill="#777" font-family="sans-serif">previous decoder</text>
<text x="515" y="50" fill="#0068b5" font-family="sans-serif">multi-scale decoder</text>
</svg>