<svg xmlns="http://www.w3.org/2000/svg" width="760" height="420">
<rect width="100%" height="100%" fill="white"/>
<line x1="55" y1="365" x2="705" y2="365" stroke="black"/>
<line x1="55" y1="55" x2="55" y2="365" stroke="black"/>
<polyline fill="none" stroke="#777" stroke-width="3" points="67.5,357.8 80.0,362.6 92.5,358.8 105.0,333.6 117.5,223.5 130.0,120.1 142.5,108.6 155.0,102.9 167.5,97.2 180.0,93.3 192.5,90.8 205.0,89.0 217.5,87.3 230.0,86.0 242.5,85.0"/>
<polyline fill="none" stroke="#0068b5" stroke-width="3" points="67.5,152.5 80.0,86.1 92.5,72.0 105.0,67.0 117.5,65.9 130.0,63.7 142.5,63.4 155.0,62.8 167.5,61.9 180.0,61.8 192.5,61.4 205.0,61.1 217.5,60.9 230.0,60.7 242.5,60.5 255.0,60.3 267.5,60.2 280.0,60.2 292.5,60.0 305.0,59.9 317.5,59.7 330.0,59.7 342.5,59.6 355.0,59.5 367.5,59.4 380.0,59.2 392.5,59.2 405.0,59.1 417.5,59.0 430.0,58.9 442.5,58.8 455.0,58.8 467.5,58.7 480.0,58.6 492.5,58.6 505.0,58.5 517.5,58.5 530.0,58.4 542.5,58.4 555.0,58.3 567.5,58.3 580.0,58.2 592.5,58.2 605.0,58.2 617.5,58.2 630.0,58.3 642.5,58.5 655.0,58.9 667.5,58.6 680.0,58.5 692.5,58.4 705.0,58.4"/>
<text x="350.0" y="408" font-family="sans-serif">Epoch</text>
<text x="8" y="210.0" font-family="sans-serif" transform="rotate(-90 15 210.0)">Training Dice</text>
<text x="515" y="30" fill="#777" font-family="sans-serif">previous decoder</text>
<text x="515" y="50" fill="#0068b5" font-family="sans-serif">multi-scale decoder</text>
</svg>